# xmcd CD database file
# Copyright (C) 1995 Ti Kan
#
# Track frame offsets:
#	150
#	25560
#	47122
#	67597
#	86880
#	110805
#	124562
#	141932
#	153080
#	170675
#	185615
#	199437
#
# Disc length: 2877 seconds
#
# Revision: 1
# Processed by: cddbd v1.4b41PL1 Copyright (c) Steve Scherf et al.
# Submitted via: NotifyCDPlayer(CDDB) 1.07
#
DISCID=a40b3b0c
DTITLE=John Denver - Live At The Sydney Opera House
DYEAR=1900
DGENRE=
TTITLE0=Rocky Mountain High
TTITLE1=Back Home Again
TTITLE2=Fly Away
TTITLE3=Looking For Space
TTITLE4=I Want To Live
TTITLE5=It's A Sin To Tell A Lie
TTITLE6=Moreton Bay
TTITLE7=Grandma's Feather Bed
TTITLE8=Thank God I'm A Country Boy
TTITLE9=Take Me Home Country Roads
TTITLE10=The Eagle And The Hawk
TTITLE11=Annie's Song
EXTD=
EXTT0=
EXTT1=
EXTT2=
EXTT3=
EXTT4=
EXTT5=
EXTT6=
EXTT7=
EXTT8=
EXTT9=
EXTT10=
EXTT11=
PLAYORDER=
